<svg width="50" height="51" viewBox="0 0 50 51" fill="none" xmlns="http://www.w3.org/2000/svg">
<ellipse cx="25" cy="25.2212" rx="25" ry="25.2212" fill="#0B0C10"/>
<path d="M10 11L12.6392 40.6906L24.4827 44L36.3587 40.6783L39 11H10ZM33.5175 17.8025L32.6386 27.6937L32.6418 27.7471L32.6376 27.8695V27.8683L32.0131 34.7841L31.9443 35.3985L24.5 37.4613V37.4624L24.494 37.4676L17.0628 35.3921L16.5594 29.6746H20.2036L20.462 32.5823L24.501 33.6785L24.5 33.6804L28.5533 32.5678L28.9819 27.8334H20.5081L20.4354 27.0331L20.2692 25.158L20.1832 24.1511H29.3041L29.6361 20.4688H15.7432L15.6702 19.6694L15.5051 17.7934L15.418 16.7866H33.6046L33.5175 17.8025Z" fill="white"/>
</svg>
