<svg width="50" height="51" viewBox="0 0 50 51" fill="none" xmlns="http://www.w3.org/2000/svg">
<ellipse cx="25" cy="25.2481" rx="25" ry="25.2212" fill="#0B0C10"/>
<path d="M36.629 13.3824C34.3982 12.3373 32.006 11.5674 29.5048 11.1264C29.4593 11.1179 29.4138 11.1391 29.3903 11.1817C29.0827 11.7403 28.7419 12.4692 28.5033 13.0421C25.8131 12.6309 23.1367 12.6309 20.5017 13.0421C20.263 12.4565 19.9099 11.7403 19.6008 11.1817C19.5774 11.1405 19.5319 11.1193 19.4863 11.1264C16.9865 11.5659 14.5944 12.3359 12.3622 13.3824C12.3429 13.3909 12.3263 13.4051 12.3153 13.4235C7.77786 20.3448 6.53486 27.096 7.14464 33.7635C7.1474 33.7961 7.16533 33.8273 7.19016 33.8472C10.1838 36.0918 13.0837 37.4546 15.9298 38.3578C15.9753 38.372 16.0236 38.355 16.0526 38.3167C16.7258 37.378 17.3259 36.3882 17.8405 35.3474C17.8708 35.2864 17.8419 35.2141 17.7798 35.19C16.8279 34.8213 15.9215 34.3718 15.0496 33.8614C14.9806 33.8202 14.9751 33.7195 15.0386 33.6713C15.222 33.5309 15.4056 33.3849 15.5808 33.2374C15.6125 33.2105 15.6566 33.2048 15.6939 33.2218C21.4219 35.8919 27.6231 35.8919 33.2835 33.2218C33.3207 33.2034 33.3649 33.2091 33.398 33.236C33.5732 33.3835 33.7567 33.5309 33.9416 33.6713C34.005 33.7195 34.0009 33.8202 33.9319 33.8614C33.06 34.3817 32.1536 34.8213 31.2003 35.1886C31.1383 35.2127 31.1107 35.2864 31.141 35.3474C31.6666 36.3868 32.2667 37.3766 32.9276 38.3153C32.9552 38.355 33.0048 38.372 33.0503 38.3578C35.9102 37.4546 38.8101 36.0918 41.8037 33.8472C41.83 33.8273 41.8465 33.7975 41.8493 33.7649C42.5791 26.0566 40.627 19.3608 36.6745 13.4249C36.6648 13.4051 36.6483 13.3909 36.629 13.3824ZM18.6959 29.7037C16.9714 29.7037 15.5504 28.0872 15.5504 26.102C15.5504 24.1167 16.9438 22.5002 18.6959 22.5002C20.4617 22.5002 21.8689 24.1309 21.8413 26.102C21.8413 28.0872 20.4479 29.7037 18.6959 29.7037ZM30.3257 29.7037C28.6012 29.7037 27.1803 28.0872 27.1803 26.102C27.1803 24.1167 28.5736 22.5002 30.3257 22.5002C32.0915 22.5002 33.4987 24.1309 33.4711 26.102C33.4711 28.0872 32.0915 29.7037 30.3257 29.7037Z" fill="white"/>
</svg>
