<svg width="50" height="51" viewBox="0 0 50 51" fill="none" xmlns="http://www.w3.org/2000/svg">
<ellipse cx="25" cy="25.2212" rx="25" ry="25.2212" fill="#0B0C10"/>
<path d="M20.58 18.8648H23.91C24.095 18.8648 24.28 18.6775 24.28 18.4902V15.6814C24.28 15.4941 24.095 15.3069 23.91 15.3069H20.58C20.395 15.3069 20.21 15.4941 20.21 15.6814V18.6775C20.21 18.6775 20.395 18.8648 20.58 18.8648ZM25.02 23.1717H28.35C28.535 23.1717 28.72 22.9844 28.72 22.7971V19.801C28.72 19.6138 28.535 19.4265 28.35 19.4265H25.02C24.835 19.4265 24.65 19.6138 24.65 19.801V22.7971C24.65 22.9844 24.835 23.1717 25.02 23.1717ZM25.02 18.8648H28.35C28.535 18.8648 28.72 18.6775 28.72 18.4902V15.6814C28.535 15.4941 28.35 15.3069 28.35 15.3069H25.02C24.835 15.3069 24.65 15.4941 24.65 15.6814V18.6775C24.65 18.6775 24.835 18.8648 25.02 18.8648ZM29.645 23.1717H32.975C33.16 23.1717 33.345 22.9844 33.345 22.7971V19.801C33.345 19.6138 33.16 19.4265 32.975 19.4265H29.645C29.46 19.4265 29.275 19.6138 29.275 19.801V22.7971C29.275 22.9844 29.46 23.1717 29.645 23.1717ZM25.02 14.5579H28.35C28.535 14.5579 28.72 14.3706 28.72 14.1834V11.3745C28.72 11.1873 28.535 11 28.35 11H25.02C24.835 11 24.65 11.1873 24.65 11.3745V14.3706C24.65 14.5579 24.835 14.5579 25.02 14.5579ZM11.33 23.1717H14.66C14.845 23.1717 15.03 22.9844 15.03 22.7971V19.801C15.03 19.6138 14.845 19.4265 14.66 19.4265H11.33C11.145 19.4265 10.96 19.6138 10.96 19.801V22.7971C11.145 22.9844 11.33 23.1717 11.33 23.1717ZM44.63 21.2991C43.705 20.7373 42.595 20.3628 41.67 20.5501C41.115 20.5501 40.56 20.5501 40.19 20.7373C39.82 19.052 38.895 17.554 37.6 16.8049L37.045 16.4304L36.675 16.9922C36.12 17.3667 35.75 18.1157 35.565 19.052C35.195 20.5501 35.38 22.0481 36.12 23.1717C35.195 23.5462 34.27 23.7334 33.345 23.9207H9.11C8.555 23.9207 8 24.4824 8 25.0442C8 27.2913 8.37 29.3511 9.11 31.4109C9.85 33.4707 11.145 35.156 12.81 36.2796C15.4 37.5904 18.175 38.1521 20.95 37.9649C22.43 37.9649 23.91 37.7776 25.39 37.5904C27.425 37.2159 29.46 36.4668 31.31 35.3433C32.79 34.407 34.085 33.2835 35.38 31.9727C37.045 29.9129 38.34 27.6658 39.265 25.0442H39.635C41.115 25.0442 42.595 24.4824 43.705 23.5462C44.26 23.1717 44.63 22.6099 44.815 21.8609L45 21.4863L44.63 21.2991ZM15.955 23.1717H19.1C19.285 23.1717 19.47 22.9844 19.47 22.7971V19.801C19.47 19.6138 19.285 19.4265 19.1 19.4265H15.955C15.77 19.4265 15.585 19.6138 15.585 19.801V22.7971C15.585 22.9844 15.77 23.1717 15.955 23.1717ZM15.955 18.8648H19.1C19.285 18.8648 19.47 18.6775 19.47 18.4902V15.6814C19.47 15.4941 19.285 15.3069 19.1 15.3069H15.955C15.77 15.3069 15.585 15.4941 15.585 15.6814V18.6775C15.585 18.6775 15.77 18.8648 15.955 18.8648ZM20.58 23.1717H23.91C24.095 23.1717 24.28 22.9844 24.28 22.7971V19.801C24.28 19.6138 24.095 19.4265 23.91 19.4265H20.58C20.395 19.4265 20.21 19.6138 20.21 19.801V22.7971C20.21 22.9844 20.395 23.1717 20.58 23.1717Z" fill="white"/>
</svg>
