<svg width="50" height="51" viewBox="0 0 50 51" fill="none" xmlns="http://www.w3.org/2000/svg">
<ellipse cx="25" cy="25.2212" rx="25" ry="25.2212" fill="#0B0C10"/>
<path d="M17.03 31V22.1766H17.5288V23.5646C17.5877 23.5031 17.6422 23.4378 17.6917 23.3691C17.8955 22.9628 18.2157 22.6208 18.6148 22.383C19.0138 22.1452 19.4752 22.0216 19.9448 22.0267C21.0815 21.9941 22.0045 22.3981 22.5474 23.3691C22.8929 23.9723 23.083 24.6461 23.1019 25.3342C23.1208 26.0223 22.9679 26.7048 22.656 27.3247C22.1504 28.4129 20.9017 28.9538 19.5648 28.755C19.1487 28.721 18.7482 28.5875 18.3997 28.3667C18.0512 28.1458 17.7658 27.8447 17.5695 27.4908V31H17.03ZM17.5288 25.298C17.5729 25.7281 17.5899 26.0344 17.6408 26.3341C17.8376 27.5136 18.5638 28.2142 19.7039 28.3412C20.2392 28.4257 20.7885 28.3294 21.2582 28.0685C21.7278 27.8077 22.0887 27.3986 22.2794 26.9108C22.4985 26.4092 22.6039 25.8685 22.5887 25.3247C22.5735 24.7809 22.438 24.2465 22.1911 23.7568C21.9876 23.3197 21.6415 22.958 21.205 22.7264C20.7686 22.4948 20.2655 22.4059 19.7718 22.4731C19.3082 22.5053 18.8666 22.6755 18.5084 22.9598C18.1502 23.2442 17.8932 23.6287 17.7731 24.0598C17.6669 24.4677 17.5853 24.8811 17.5288 25.298ZM33.2768 26.497C33.2013 27.1183 32.8933 27.692 32.4102 28.1115C31.9271 28.5311 31.3018 28.7679 30.6505 28.7778C28.5602 28.8789 27.5796 27.5462 27.4235 26.0083C27.3152 25.1731 27.4564 24.3256 27.8307 23.5646C28.0914 23.0426 28.5183 22.6138 29.0496 22.3402C29.5809 22.0666 30.1892 21.9625 30.7862 22.043C31.3538 22.0892 31.8919 22.3057 32.3243 22.6618C32.7567 23.0179 33.0614 23.4956 33.1954 24.0273C33.3016 24.5115 33.3798 25.001 33.4295 25.4935H27.9359C27.8341 26.888 28.6145 28.0089 29.7207 28.2793C31.0984 28.6052 32.2758 28.0317 32.7034 26.774C32.7984 26.4514 32.9714 26.4058 33.2768 26.497ZM27.9359 25.0471H32.8459C32.8154 23.5613 31.8517 22.4861 30.5453 22.4698C29.0658 22.447 28.0004 23.4831 27.9359 25.0471ZM34.288 26.5296H34.7699C34.7877 26.8701 34.9029 27.1992 35.1028 27.4809C35.3028 27.7626 35.5797 27.9858 35.9032 28.1262C36.3094 28.3017 36.7517 28.387 37.197 28.3758C37.6423 28.3645 38.0792 28.2569 38.4753 28.061C38.6911 27.9676 38.8719 27.8129 38.9932 27.6177C39.1146 27.4225 39.1707 27.1963 39.1539 26.9695C39.1663 26.7508 39.1041 26.5342 38.9768 26.3525C38.8494 26.1708 38.6638 26.034 38.4481 25.9627C37.9188 25.7737 37.3555 25.6694 36.816 25.5033C36.2546 25.3498 35.7057 25.157 35.1737 24.9266C34.305 24.5193 34.2507 22.9325 35.2347 22.4307C35.7386 22.1577 36.3057 22.0102 36.8842 22.0016C37.4627 21.9931 38.0342 22.1238 38.5465 22.3818C38.8569 22.5465 39.1076 22.7982 39.2653 23.1032C39.4229 23.4083 39.4799 23.7522 39.4288 24.0892H39.0148C39.0148 24.0696 38.9775 24.0533 38.9775 24.0338C38.9266 22.7663 37.8204 22.3753 36.6327 22.4861C36.2782 22.5281 35.9339 22.6284 35.6148 22.7826C35.4231 22.8668 35.2633 23.006 35.1576 23.1811C35.0518 23.3562 35.0053 23.5585 35.0244 23.7601C35.0249 23.9618 35.0905 24.1583 35.212 24.3228C35.3335 24.4873 35.505 24.6117 35.703 24.6789C36.2256 24.8614 36.7719 24.9787 37.308 25.122C37.7389 25.2361 38.1868 25.311 38.6042 25.4479C38.8988 25.5406 39.1571 25.717 39.3449 25.9539C39.5328 26.1907 39.6413 26.4767 39.6561 26.774C39.7065 27.0998 39.6487 27.4325 39.4909 27.725C39.3332 28.0174 39.0835 28.2547 38.7773 28.4031C37.6439 29.019 35.7777 28.856 34.9463 28.0773C34.7356 27.8738 34.569 27.6323 34.456 27.3667C34.343 27.1011 34.2859 26.8166 34.288 26.5296ZM45.7639 24.0892H45.3126C45.3126 24.0305 45.2889 23.9784 45.2821 23.9295C45.2748 23.6047 45.1515 23.2921 44.9328 23.0442C44.7141 22.7962 44.4134 22.628 44.0809 22.5676C43.4536 22.3947 42.7844 22.4257 42.1773 22.6555C41.9373 22.7216 41.726 22.8604 41.575 23.0513C41.4239 23.2421 41.3412 23.4748 41.3392 23.7145C41.3307 23.9499 41.4071 24.1809 41.5555 24.3685C41.7039 24.556 41.9151 24.6887 42.1535 24.7441C42.8322 24.9461 43.5278 25.0699 44.2166 25.2524C44.4398 25.3038 44.6597 25.368 44.8749 25.4446C45.1963 25.555 45.4756 25.756 45.6762 26.0212C45.8768 26.2865 45.9894 26.6037 45.9993 26.9313C46.0092 27.259 45.9159 27.5819 45.7317 27.8578C45.5474 28.1338 45.2808 28.35 44.9665 28.4781C44.4877 28.6869 43.9687 28.7973 43.4428 28.8024C42.9169 28.8074 42.3957 28.707 41.9126 28.5074C41.5153 28.3429 41.1801 28.0654 40.952 27.7124C40.7239 27.3594 40.6139 26.9478 40.6368 26.5329H40.8268H41.0779C41.1595 26.9109 41.3358 27.2642 41.5917 27.5621C41.8475 27.8599 42.1751 28.0934 42.546 28.2423C42.917 28.3912 43.3202 28.4511 43.7207 28.4166C44.1212 28.3822 44.5069 28.2546 44.8444 28.0447C45.05 27.9422 45.2206 27.7851 45.3361 27.5922C45.4516 27.3993 45.507 27.1787 45.4959 26.9565C45.5061 26.7376 45.4417 26.5216 45.3125 26.3411C45.1833 26.1606 44.9963 26.0254 44.7799 25.9562C44.2506 25.7672 43.6873 25.6662 43.1478 25.5C42.5832 25.3489 42.0309 25.1583 41.4953 24.9298C40.6469 24.529 40.5791 22.9553 41.5462 22.4535C42.0563 22.169 42.6344 22.0162 43.2243 22.0099C43.8142 22.0037 44.3957 22.1441 44.9122 22.4177C45.2077 22.587 45.4455 22.8352 45.5967 23.1319C45.7479 23.4287 45.806 23.7613 45.7639 24.0892ZM16.2055 28.6182C16.0278 28.6828 15.8317 28.6827 15.6541 28.6178C15.4765 28.553 15.3299 28.4279 15.2418 28.2663C14.6887 27.4713 14.0779 26.7121 13.4909 25.9366L13.2364 25.6108C12.5374 26.5101 11.8384 27.3735 11.2004 28.2696C11.1173 28.424 10.9786 28.5442 10.81 28.6078C10.6415 28.6713 10.4546 28.6738 10.2843 28.6149L12.9072 25.2361L10.4675 22.1831C10.6431 22.1222 10.8352 22.1213 11.0114 22.1807C11.1876 22.2401 11.3371 22.356 11.4346 22.5089C12.0012 23.3039 12.629 24.0631 13.2534 24.8679C13.8811 24.0696 14.5021 23.3072 15.0823 22.5187C15.1659 22.3667 15.3047 22.2496 15.4724 22.1895C15.6401 22.1294 15.8249 22.1306 15.9917 22.1928L15.045 23.3984C14.6208 23.936 14.2035 24.4769 13.7623 25.0015C13.7268 25.0321 13.6984 25.0695 13.6789 25.1113C13.6594 25.1531 13.6494 25.1984 13.6494 25.2442C13.6494 25.29 13.6594 25.3353 13.6789 25.3772C13.6984 25.419 13.7268 25.4564 13.7623 25.487C14.5733 26.5199 15.3775 27.556 16.2055 28.6182ZM27.3421 22.1505V22.6067C26.9989 22.585 26.6548 22.6328 26.332 22.7467C26.0092 22.8607 25.7149 23.0384 25.468 23.2684C25.2212 23.4984 25.0273 23.7755 24.8989 24.0819C24.7704 24.3882 24.7104 24.7171 24.7225 25.0471C24.7225 26.1202 24.7225 27.1932 24.7225 28.2663C24.7225 28.3803 24.7225 28.4944 24.7225 28.6312H24.2373V22.1766H24.7123V23.4994C25.2993 22.535 26.2053 22.1766 27.3421 22.1505ZM4 25.1937C4.07126 24.8679 4.11537 24.5127 4.21377 24.1804C4.8008 22.1766 7.19303 21.3424 8.83875 22.5838C9.80243 23.3104 10.0434 24.3401 9.99585 25.5H4.56667C4.47845 27.5723 6.03594 28.8235 8.02777 28.1848C8.35087 28.0739 8.64011 27.8874 8.86937 27.6422C9.09863 27.397 9.2607 27.1009 9.34095 26.7805C9.44614 26.4547 9.6158 26.3993 9.93816 26.4938C9.88506 26.8905 9.739 27.2704 9.51097 27.6051C9.28293 27.9397 8.97885 28.2204 8.62159 28.426C8.0313 28.7359 7.35406 28.8587 6.68671 28.7768C6.01936 28.6948 5.39608 28.4124 4.90599 27.9698C4.42115 27.4463 4.12799 26.7849 4.07126 26.0865C4.07126 25.9757 4.02715 25.8649 4.00339 25.7607C4.00113 25.5673 4 25.3784 4 25.1937ZM4.57346 25.0536H9.48347C9.45293 23.5516 8.4655 22.4861 7.14892 22.4763C5.68304 22.4568 4.63453 23.4994 4.57006 25.0471L4.57346 25.0536Z" fill="white" stroke="white" stroke-width="0.5"/>
</svg>
