<svg width="50" height="51" viewBox="0 0 50 51" fill="none" xmlns="http://www.w3.org/2000/svg">
<ellipse cx="25" cy="25.2212" rx="25" ry="25.2212" fill="#0B0C10"/>
<path d="M24.25 36.7498C24.25 39.7874 21.7876 42.2498 18.75 42.2498C15.7124 42.2498 13.25 39.7874 13.25 36.7498C13.25 33.7123 15.7124 31.2498 18.75 31.2498H24.25V36.7498Z" fill="white" stroke="black" stroke-width="0.5"/>
<path d="M13.25 25.2499C13.25 22.2123 15.7124 19.7499 18.75 19.7499H24.25V30.7499H18.75C15.7124 30.7499 13.25 28.2874 13.25 25.2499Z" fill="white" stroke="black" stroke-width="0.5"/>
<path d="M13.25 13.75C13.25 10.7124 15.7124 8.25 18.75 8.25H24.25V19.2501H18.75C15.7124 19.2501 13.25 16.7875 13.25 13.75Z" fill="white" stroke="black" stroke-width="0.5"/>
<path d="M24.75 8.25H30.25C33.2876 8.25 35.75 10.7124 35.75 13.75C35.75 16.7875 33.2876 19.2501 30.25 19.2501H24.75V8.25Z" fill="white" stroke="black" stroke-width="0.5"/>
<path d="M35.75 25.2499C35.75 28.2874 33.2876 30.7499 30.25 30.7499C27.2124 30.7499 24.75 28.2874 24.75 25.2499C24.75 22.2123 27.2124 19.7499 30.25 19.7499C33.2876 19.7499 35.75 22.2123 35.75 25.2499Z" fill="white" stroke="black" stroke-width="0.5"/>
</svg>
