<svg width="50" height="51" viewBox="0 0 50 51" fill="none" xmlns="http://www.w3.org/2000/svg">
<ellipse cx="25" cy="25.2212" rx="25" ry="25.2212" fill="#0B0C10"/>
<path d="M40.9389 23.8228L26.7291 9.61372C25.9113 8.79543 24.5841 8.79543 23.765 9.61372L20.8148 12.5646L24.5578 16.3076C25.4279 16.0139 26.4251 16.2109 27.1184 16.9041C27.8152 17.6018 28.0109 18.6075 27.7095 19.4805L31.3168 23.0883C32.1895 22.7874 33.1968 22.9818 33.8934 23.68C34.8679 24.6537 34.8679 26.2323 33.8934 27.2066C32.9189 28.1811 31.3408 28.1811 30.3658 27.2066C29.6331 26.4734 29.4518 25.397 29.8231 24.4941L26.4591 21.1299L26.4586 29.9835C26.6963 30.1008 26.9204 30.2575 27.1184 30.4548C28.0926 31.4285 28.0926 33.0066 27.1184 33.9824C26.1441 34.9562 24.565 34.9562 23.5917 33.9824C22.6177 33.0069 22.5378 31.4288 23.5116 30.4548C23.7524 30.2142 23.9898 30.0325 24.2476 29.9108V20.9753C23.9898 20.8536 23.7526 20.6731 23.5113 20.431C22.7737 19.6937 22.6358 18.6109 23.0142 17.7044L19.3448 14.0143L9.61134 23.7571C8.79279 24.5761 8.79795 25.9033 9.6165 26.7219L23.8287 40.931C24.6467 41.7493 25.975 41.7493 26.7943 40.931L40.9379 26.7879C41.7564 25.9691 41.7572 24.6411 40.9389 23.8228V23.8228Z" fill="white"/>
</svg>
