<svg width="50" height="51" viewBox="0 0 50 51" fill="none" xmlns="http://www.w3.org/2000/svg">
<ellipse cx="25" cy="25.2388" rx="25" ry="25.2212" fill="#0B0C10"/>
<path d="M24.4991 30.1861C27.2384 30.1861 29.4591 27.9654 29.4591 25.2261C29.4591 22.4868 27.2384 20.2661 24.4991 20.2661C21.7597 20.2661 19.5391 22.4868 19.5391 25.2261C19.5391 27.9654 21.7597 30.1861 24.4991 30.1861Z" fill="white"/>
<path d="M31.32 9.72607H17.68C15.3787 9.72868 13.1724 10.644 11.5452 12.2713C9.91794 13.8985 9.00261 16.1048 9 18.4061V32.0461C9.00261 34.3474 9.91794 36.5536 11.5452 38.1809C13.1724 39.8081 15.3787 40.7235 17.68 40.7261H31.32C33.6213 40.7235 35.8276 39.8081 37.4548 38.1809C39.0821 36.5536 39.9974 34.3474 40 32.0461V18.4061C39.9974 16.1048 39.0821 13.8985 37.4548 12.2713C35.8276 10.644 33.6213 9.72868 31.32 9.72607ZM24.5 32.6661C23.0285 32.6661 21.5901 32.2297 20.3666 31.4122C19.1431 30.5947 18.1895 29.4327 17.6263 28.0732C17.0632 26.7138 16.9159 25.2178 17.203 23.7746C17.49 22.3314 18.1986 21.0057 19.2391 19.9652C20.2796 18.9247 21.6053 18.2161 23.0485 17.929C24.4917 17.642 25.9877 17.7893 27.3472 18.3524C28.7066 18.9155 29.8686 19.8691 30.6861 21.0926C31.5037 22.3161 31.94 23.7546 31.94 25.2261C31.9378 27.1986 31.1532 29.0897 29.7584 30.4845C28.3636 31.8793 26.4725 32.6638 24.5 32.6661ZM32.56 19.0261C32.1921 19.0261 31.8325 18.917 31.5266 18.7126C31.2208 18.5082 30.9824 18.2177 30.8416 17.8779C30.7008 17.538 30.664 17.164 30.7357 16.8032C30.8075 16.4424 30.9847 16.111 31.2448 15.8509C31.5049 15.5907 31.8363 15.4136 32.1971 15.3418C32.5579 15.27 32.9319 15.3069 33.2718 15.4477C33.6117 15.5884 33.9022 15.8268 34.1065 16.1327C34.3109 16.4386 34.42 16.7982 34.42 17.1661C34.42 17.6594 34.224 18.1325 33.8752 18.4813C33.5264 18.8301 33.0533 19.0261 32.56 19.0261Z" fill="white"/>
</svg>
