<svg width="50" height="51" viewBox="0 0 50 51" fill="none" xmlns="http://www.w3.org/2000/svg">
<ellipse cx="25" cy="25.2212" rx="25" ry="25.2212" fill="#0B0C10"/>
<path d="M29.4102 30.4062C30.3867 32.0664 31.7539 33.2383 34 33.2383C35.9531 33.2383 37.2227 32.2617 37.2227 30.8945C37.2227 29.332 35.9531 28.7461 33.8047 27.7695L32.6328 27.2812C29.2148 25.8164 26.9688 24.0586 26.9688 20.25C26.9688 16.7344 29.6055 14 33.8047 14C36.832 14 38.9805 15.0742 40.4453 17.8086L36.832 20.1523C36.0508 18.6875 35.1719 18.1016 33.8047 18.1016C32.4375 18.1016 31.5586 18.9805 31.5586 20.1523C31.5586 21.5195 32.4375 22.1055 34.4883 22.9844L35.6602 23.4727C39.6641 25.2305 41.9102 26.8906 41.9102 30.8945C41.9102 35.0938 38.5898 37.4375 34.0977 37.4375C29.7031 37.4375 26.8711 35.3867 25.5039 32.6523L29.4102 30.4062ZM12.8086 30.7969C13.5898 32.0664 14.1758 33.2383 15.8359 33.2383C17.3984 33.2383 18.375 32.6523 18.375 30.3086V14.0977H23.0625V30.1133C23.0625 34.9961 20.2305 37.1445 16.0312 37.1445C12.2227 37.1445 10.0742 35.1914 9 32.8477L12.8086 30.7969Z" fill="white"/>
</svg>
