<svg width="50" height="51" viewBox="0 0 50 51" fill="none" xmlns="http://www.w3.org/2000/svg">
<ellipse cx="25" cy="25.2212" rx="25" ry="25.2212" fill="#0B0C10"/>
<path d="M37.1707 33.5611C37.0129 33.2446 36.8551 32.928 36.8551 32.6115C36.8551 31.9784 36.5395 31.5036 36.0661 31.0287C35.9082 30.8705 35.5926 30.7122 35.4348 30.7122C36.3817 27.8633 34.9614 25.0143 33.3833 22.9568C32.1208 21.0575 30.2271 19.633 30.3849 17.1006C30.3849 14.0934 30.7005 8.55384 25.1772 9.02866C19.496 9.34521 21.0741 15.2013 20.9163 17.2589C20.9163 18.9999 20.1272 20.7409 18.8647 22.1654C18.5491 22.4819 18.2335 22.9568 18.0757 23.2733C16.4976 25.1726 15.7085 27.705 15.7085 30.0791C15.3929 30.3956 15.0773 30.7122 14.9195 31.0287C14.7617 31.187 14.6039 31.3453 14.6039 31.5036C14.4461 31.6618 14.1304 31.8201 13.8148 31.9784C13.1836 32.1367 12.7101 32.4532 12.3945 33.0863C12.2367 33.5611 12.0789 34.1942 12.2367 34.8273C12.3945 35.1439 12.3945 35.4604 12.2367 35.9352C11.9211 36.5683 11.9211 37.3597 12.2367 38.1511C12.7101 38.7842 13.4992 38.9424 14.6039 39.1007C15.3929 39.1007 16.3398 39.4173 17.1288 39.7338C17.9179 40.2086 18.8647 40.5252 19.8116 40.5252C20.285 40.5252 20.9163 40.3669 21.3897 40.2086C21.8631 39.8921 22.1788 39.5755 22.3366 39.1007C22.9678 39.1007 23.9147 38.7842 25.0193 38.7842C25.9662 38.7842 26.9131 39.1007 28.1755 38.9424C28.1755 39.1007 28.1755 39.259 28.3334 39.4173C28.649 40.2086 29.438 40.8417 30.3849 41C30.5427 41 30.5427 41 30.7005 41C31.963 40.8417 33.2255 40.2086 34.0145 39.259C34.6458 38.6259 35.4348 38.1511 36.2239 37.8345C37.1707 37.3597 37.802 37.0432 37.9598 36.2518C38.1176 35.1439 37.802 34.5108 37.1707 33.5611ZM26.2818 13.3021C27.2287 13.4603 28.0177 14.2517 27.8599 15.2013C27.8599 15.6762 27.7021 16.151 27.3865 16.6258C27.3865 16.6258 27.3865 16.6258 27.2287 16.6258C26.9131 16.4675 26.7553 16.4675 26.5974 16.3093C26.7553 16.151 26.7553 15.8344 26.9131 15.5179C26.9131 14.8848 26.5974 14.41 26.2818 14.41C25.8084 14.41 25.4928 14.8848 25.4928 15.5179V15.6762C25.335 15.5179 25.0193 15.5179 24.8615 15.3596V15.2013C24.7037 14.41 25.335 13.4603 26.2818 13.3021ZM25.8084 16.4675C25.9662 16.6258 26.2818 16.7841 26.4396 16.7841C26.5974 16.7841 26.9131 16.9424 27.0709 17.1006C27.3865 17.2589 27.7021 17.4172 27.7021 17.892C27.7021 18.3668 27.2287 18.8416 26.2818 19.1582C25.9662 19.3165 25.8084 19.3165 25.6506 19.4747C25.1772 19.7913 24.7037 19.9496 24.0725 19.9496C23.5991 19.9496 23.1256 19.633 22.81 19.3165C22.6522 19.1582 22.4944 18.9999 22.1788 18.8416C22.0209 18.6834 21.7053 18.3668 21.5475 17.892C21.5475 17.7337 21.7053 17.5755 21.8631 17.4172C22.3366 17.1006 22.4944 16.9424 22.6522 16.7841L22.81 16.6258C23.1256 16.151 23.7569 15.8344 24.3881 15.8344C24.8615 15.9927 25.335 16.151 25.8084 16.4675ZM22.4944 13.6186C23.1256 13.6186 23.5991 14.2517 23.7569 15.3596C23.7569 15.5179 23.7569 15.5179 23.7569 15.6762C23.5991 15.6762 23.2834 15.8344 23.1256 15.9927C23.1256 15.9927 23.1256 15.8344 23.1256 15.6762C23.1256 15.2013 22.81 14.7265 22.4944 14.8848C22.1788 14.8848 22.0209 15.3596 22.0209 15.8344C22.0209 16.151 22.1788 16.3093 22.3366 16.4675C22.3366 16.4675 22.1788 16.6258 22.0209 16.6258C21.7053 16.3093 21.3897 15.8344 21.3897 15.3596C21.3897 14.41 21.8631 13.6186 22.4944 13.6186ZM20.9163 39.1007C19.8116 39.5755 18.3913 39.4173 17.4445 38.7842C16.4976 38.3093 15.7085 38.1511 14.6039 38.1511C13.8148 37.9928 13.0258 37.9928 12.868 37.6762C12.7101 37.3597 12.7101 36.8849 13.0258 36.0935C13.1836 35.6187 13.1836 35.1439 13.0258 34.669C12.868 34.1942 12.868 33.8777 13.0258 33.4029C13.1836 32.928 13.4992 32.7698 13.9726 32.6115C14.4461 32.4532 14.7617 32.2949 15.0773 31.9784C15.2351 31.8201 15.3929 31.6618 15.5507 31.3453C16.0242 30.7122 16.3398 30.3956 16.8132 30.3956C17.7601 30.5539 18.5491 31.9784 19.1804 33.4029C19.496 33.8777 19.8116 34.5108 20.285 34.9856C20.9163 35.777 21.7053 36.8849 21.7053 37.518C21.7053 38.3093 21.3897 38.7842 20.9163 39.1007ZM28.649 35.6187C28.649 35.777 28.649 35.777 28.4912 35.9352C26.5974 37.3597 24.0725 37.518 22.0209 36.4101C21.7053 35.9352 21.3897 35.4604 21.0741 34.9856C22.4944 34.8273 22.1788 32.928 19.1804 31.0287C16.0242 28.9712 18.2335 25.1726 19.3382 23.4316C19.496 23.2733 19.496 23.4316 18.8647 24.6978C18.3913 25.6474 17.4445 28.0215 18.7069 29.7626C18.7069 28.4964 19.0226 27.2302 19.496 25.964C20.6007 23.9064 21.3897 21.5323 21.8631 19.1582C22.0209 19.3165 22.0209 19.3165 22.1788 19.3165C22.3366 19.4747 22.4944 19.633 22.6522 19.633C22.9678 20.1078 23.5991 20.2661 24.0725 20.2661H24.2303C24.8615 20.2661 25.4928 20.1078 25.9662 19.633C26.124 19.4747 26.2818 19.3165 26.5974 19.3165C27.0709 19.1582 27.5443 18.8416 28.0177 18.3668C28.649 20.4244 29.2802 22.3237 30.2271 24.0647C30.8583 25.3309 31.3318 26.5971 31.6474 28.0215C32.1208 28.0215 32.752 28.1798 33.2255 28.4964C34.488 29.1295 34.9614 29.6043 34.8036 30.3956C34.6458 30.3956 34.6458 30.3956 34.488 30.3956C34.488 29.9208 34.1723 29.446 33.0677 28.9712C31.963 28.4964 31.0161 28.4964 30.7005 29.6043C30.5427 29.6043 30.3849 29.7626 30.2271 29.7626C28.9646 30.3956 28.9646 32.1367 28.8068 33.8777C28.9646 34.5108 28.8068 34.9856 28.649 35.6187ZM35.9082 36.5683C34.9614 36.8849 34.1723 37.518 33.5411 38.3093C32.9099 39.259 31.8052 39.8921 30.5427 39.7338C29.9115 39.7338 29.2802 39.259 29.1224 38.6259C28.9646 37.6762 28.9646 36.7266 29.438 35.777C29.5958 35.1439 29.7537 34.669 29.9115 34.0359C30.0693 32.1367 30.0693 31.0287 30.8583 30.5539C30.8583 31.3453 31.3318 31.8201 31.963 32.1367C32.752 32.1367 33.5411 31.9784 34.1723 31.3453C34.3301 31.3453 34.3301 31.3453 34.488 31.3453C34.9614 31.3453 35.277 31.3453 35.5926 31.6618C35.9083 31.9784 36.0661 32.4532 36.0661 32.7698C36.0661 33.2446 36.3817 33.7194 36.5395 34.1942C37.3285 34.9856 37.3285 35.4604 37.3285 35.6187C37.1707 35.9352 36.5395 36.2518 35.9082 36.5683ZM21.7053 17.5755C21.5475 17.5755 21.5475 17.5755 21.5475 17.7337C21.5475 17.7337 21.5475 17.892 21.7053 17.892C21.8631 17.892 21.8631 18.0503 21.8631 18.0503C22.3366 18.6834 23.1256 18.9999 24.0725 19.1582C24.8615 18.9999 25.6506 18.8416 26.4396 18.2086C26.7553 18.0503 27.0709 17.892 27.3865 17.7337C27.5443 17.7337 27.5443 17.5755 27.5443 17.5755C27.5443 17.4172 27.5443 17.4172 27.3865 17.4172C27.0709 17.5755 26.5974 17.7337 26.2818 17.892C25.6506 18.3668 24.8615 18.6834 24.0725 18.6834C23.2834 18.6834 22.6522 18.2086 22.1788 17.7337C22.0209 17.7337 21.8631 17.5755 21.7053 17.5755Z" fill="white"/>
</svg>
