<svg width="50" height="51" viewBox="0 0 50 51" fill="none" xmlns="http://www.w3.org/2000/svg">
<ellipse cx="25" cy="25.2212" rx="25" ry="25.2212" fill="#0B0C10"/>
<path d="M14.9664 18.9987H22.1335V19.5702H15.6234V23.8717H21.7453V24.4432H15.6234V29.1657H22.2082V29.7373H14.9664V18.9987ZM22.7756 18.9987H23.5371L26.9116 23.7213L30.3608 18.9987L35.0523 13L27.3447 24.2176L31.3165 29.7373H30.5251L26.9116 24.7139L23.2833 29.7373H22.5068L26.5085 24.2176L22.7756 18.9987ZM31.6002 19.5702V18.9987H39.7677V19.5702H36.005V29.7373H35.348V19.5702H31.6002ZM6 18.9987H6.82124L18.1456 36L13.4658 29.7373L6.68685 19.8109L6.65699 29.7373H6V18.9987ZM39.7015 28.9933C39.5673 28.9933 39.4666 28.8889 39.4666 28.7541C39.4666 28.6192 39.5673 28.5149 39.7015 28.5149C39.8374 28.5149 39.9364 28.6192 39.9364 28.7541C39.9364 28.8889 39.8374 28.9933 39.7015 28.9933ZM40.3471 28.364H40.6986C40.7034 28.555 40.8425 28.6835 41.047 28.6835C41.2755 28.6835 41.4049 28.5454 41.4049 28.287V26.6496H41.7629V28.2886C41.7629 28.7541 41.4944 29.0222 41.0502 29.0222C40.6331 29.0222 40.3471 28.7621 40.3471 28.364ZM42.2311 28.3431H42.5858C42.6162 28.5631 42.8303 28.7027 43.1387 28.7027C43.4263 28.7027 43.6373 28.5534 43.6373 28.348C43.6373 28.1714 43.503 28.0654 43.1978 27.9932L42.9006 27.921C42.4835 27.823 42.2934 27.6208 42.2934 27.2805C42.2934 26.8679 42.629 26.5934 43.1323 26.5934C43.6005 26.5934 43.9425 26.8679 43.9632 27.258H43.6149C43.5813 27.0445 43.396 26.9112 43.1275 26.9112C42.8447 26.9112 42.6561 27.0477 42.6561 27.2564C42.6561 27.4217 42.7776 27.5164 43.078 27.5871L43.3321 27.6497C43.8051 27.7604 44 27.9531 44 28.3014C44 28.7445 43.658 29.0222 43.1115 29.0222C42.6002 29.0222 42.2566 28.7573 42.2311 28.3431Z" fill="white" stroke="white" stroke-width="0.2"/>
</svg>
