<svg width="50" height="51" viewBox="0 0 50 51" fill="none" xmlns="http://www.w3.org/2000/svg">
<ellipse cx="25" cy="25.2212" rx="25" ry="25.2212" fill="#0B0C10"/>
<path d="M24.3842 37C24.2514 37 24.1274 36.9646 24.0121 36.9026L22.8339 36.2027C22.6567 36.1052 22.7453 36.0698 22.7985 36.0521C23.0376 35.9724 23.0819 35.9546 23.33 35.8129C23.3566 35.7952 23.3921 35.804 23.4186 35.8218L24.3223 36.3622C24.3577 36.3799 24.402 36.3799 24.4285 36.3622L27.9634 34.3156C27.9989 34.2979 28.0166 34.2624 28.0166 34.2182V30.1341C28.0166 30.0897 27.9989 30.0544 27.9634 30.0366L24.4285 27.999C24.3931 27.9812 24.3488 27.9812 24.3223 27.999L20.7874 30.0366C20.752 30.0543 20.7342 30.0986 20.7342 30.134V34.2181C20.7342 34.2536 20.752 34.2979 20.7874 34.3156L21.7531 34.8738C22.2758 35.1395 22.6035 34.8295 22.6035 34.5194V30.4884C22.6035 30.4353 22.6478 30.3821 22.7099 30.3821H23.1617C23.2149 30.3821 23.268 30.4264 23.268 30.4884V34.5194C23.268 35.2192 22.887 35.6268 22.2226 35.6268C22.0188 35.6268 21.8594 35.6268 21.4075 35.4053L20.4773 34.8738C20.247 34.7409 20.1052 34.4928 20.1052 34.227V30.1429C20.1052 29.8771 20.247 29.629 20.4773 29.4962L24.0121 27.4496C24.2337 27.3256 24.5349 27.3256 24.7564 27.4496L28.2912 29.4962C28.5216 29.629 28.6634 29.8771 28.6634 30.1429V34.227C28.6634 34.4928 28.5216 34.7409 28.2912 34.8738L24.7564 36.9203C24.6412 36.9735 24.5083 37 24.3843 37H24.3842ZM25.4739 34.1916C23.9236 34.1916 23.6046 33.4829 23.6046 32.8804C23.6046 32.8273 23.649 32.7741 23.711 32.7741H24.1717C24.2248 32.7741 24.2691 32.8095 24.2691 32.8627C24.34 33.3323 24.5437 33.5626 25.4828 33.5626C26.227 33.5626 26.546 33.3943 26.546 32.9956C26.546 32.7652 26.4573 32.597 25.2968 32.4818C24.3311 32.3843 23.7287 32.1717 23.7287 31.4009C23.7287 30.6833 24.3312 30.258 25.3411 30.258C26.475 30.258 27.0332 30.6479 27.1041 31.4983C27.1041 31.525 27.0953 31.5515 27.0775 31.5781C27.0598 31.5958 27.0332 31.6135 27.0066 31.6135H26.5459C26.5016 31.6135 26.4573 31.5781 26.4485 31.5338C26.3422 31.0466 26.0675 30.8871 25.3411 30.8871C24.526 30.8871 24.4285 31.1706 24.4285 31.3832C24.4285 31.6401 24.5437 31.7198 25.6423 31.8616C26.732 32.0034 27.2459 32.2071 27.2459 32.969C27.237 33.7486 26.5991 34.1916 25.4739 34.1916Z" fill="white"/>
<path d="M13.4164 21.0266C13.4164 20.8672 13.3278 20.7165 13.1861 20.6368L9.4297 18.4751C9.36761 18.4396 9.29678 18.4219 9.22595 18.413H9.19046C9.11963 18.413 9.04873 18.4396 8.98671 18.4751L5.23035 20.6368C5.08854 20.7165 5 20.8671 5 21.0266L5.00889 26.8383C5.00889 26.9181 5.0532 26.9978 5.12403 27.0333C5.19493 27.0776 5.28347 27.0776 5.34556 27.0333L7.57811 25.7575C7.71985 25.6778 7.80846 25.5272 7.80846 25.3677V22.6479C7.80846 22.4884 7.89699 22.3378 8.03881 22.2581L8.98671 21.7088C9.05762 21.6645 9.13734 21.6467 9.21706 21.6467C9.29678 21.6467 9.3765 21.6645 9.43859 21.7088L10.3865 22.2581C10.5283 22.3378 10.6168 22.4884 10.6168 22.6479V25.3677C10.6168 25.5272 10.7055 25.6778 10.8472 25.7575L13.0797 27.0333C13.1506 27.0776 13.2392 27.0776 13.3101 27.0333C13.381 26.9978 13.4253 26.9181 13.4253 26.8383L13.4164 21.0266ZM31.4718 13.0266C31.401 12.9911 31.3123 12.9911 31.2503 13.0266C31.1794 13.0709 31.1351 13.1418 31.1351 13.2215V18.9801C31.1351 19.0332 31.1086 19.0864 31.0554 19.1219C31.0023 19.1484 30.9491 19.1484 30.896 19.1219L29.9569 18.5814C29.888 18.5422 29.8102 18.5216 29.7309 18.5216C29.6517 18.5216 29.5738 18.5422 29.505 18.5814L25.7486 20.752C25.6069 20.8317 25.5183 20.9823 25.5183 21.1418V25.474C25.5183 25.6334 25.6069 25.7841 25.7486 25.8638L29.505 28.0344C29.5738 28.0736 29.6517 28.0942 29.7309 28.0942C29.8102 28.0942 29.888 28.0736 29.9569 28.0344L33.7132 25.8638C33.855 25.7841 33.9436 25.6335 33.9436 25.474V14.6745C33.9436 14.5061 33.855 14.3556 33.7132 14.2758L31.4719 13.0266H31.4718ZM31.1263 24.0477C31.1263 24.092 31.1086 24.1274 31.0731 24.1451L29.7885 24.8892C29.7706 24.898 29.7509 24.9026 29.7309 24.9026C29.711 24.9026 29.6913 24.898 29.6733 24.8892L28.3888 24.1451C28.3533 24.1274 28.3356 24.0831 28.3356 24.0477V22.5593C28.3356 22.515 28.3533 22.4795 28.3888 22.4618L29.6733 21.7176C29.6913 21.7088 29.711 21.7043 29.7309 21.7043C29.7509 21.7043 29.7706 21.7088 29.7885 21.7176L31.0731 22.4618C31.1086 22.4795 31.1263 22.5239 31.1263 22.5593V24.0477ZM43.9723 22.5239C44.1141 22.4441 44.1939 22.2935 44.1939 22.134V21.0798C44.1939 20.9203 44.1053 20.7697 43.9723 20.69L40.2426 18.5283C40.1737 18.4891 40.0959 18.4685 40.0167 18.4685C39.9375 18.4685 39.8596 18.4891 39.7908 18.5283L36.0344 20.6988C35.8926 20.7785 35.8041 20.9291 35.8041 21.0887V25.4208C35.8041 25.5803 35.8926 25.7309 36.0344 25.8106L39.7642 27.9369C39.906 28.0166 40.0742 28.0166 40.2071 27.9369L42.4662 26.679C42.5371 26.6435 42.5814 26.5638 42.5814 26.484C42.5814 26.4043 42.5371 26.3246 42.4662 26.2891L38.6922 24.1186C38.6213 24.0743 38.577 24.0034 38.577 23.9237V22.5682C38.577 22.4885 38.6213 22.4088 38.6922 22.3733L39.8705 21.7C39.905 21.6783 39.9449 21.6667 39.9857 21.6667C40.0264 21.6667 40.0663 21.6783 40.1008 21.7L41.2791 22.3733C41.35 22.4176 41.3943 22.4884 41.3943 22.5682V23.6314C41.3943 23.7111 41.4386 23.7908 41.5094 23.8262C41.5803 23.8705 41.6689 23.8705 41.7398 23.8262L43.9723 22.5239Z" fill="white"/>
<path d="M39.9591 22.3202C39.9722 22.3115 39.9876 22.3069 40.0034 22.3069C40.0191 22.3069 40.0345 22.3115 40.0476 22.3202L40.7653 22.7365C40.7919 22.7542 40.8096 22.7808 40.8096 22.8163V23.649C40.8096 23.6844 40.7919 23.711 40.7653 23.7288L40.0476 24.1451C40.0345 24.1538 40.0191 24.1584 40.0034 24.1584C39.9876 24.1584 39.9722 24.1538 39.9591 24.1451L39.2414 23.7288C39.2149 23.711 39.1971 23.6844 39.1971 23.649V22.8163C39.1971 22.7808 39.2149 22.7542 39.2414 22.7365L39.9591 22.3202Z" fill="white"/>
<mask id="mask0_6_32" style="mask-type:alpha" maskUnits="userSpaceOnUse" x="15" y="18" width="9" height="11">
<path d="M19.6977 18.5461C19.6288 18.5069 19.551 18.4863 19.4718 18.4863C19.3925 18.4863 19.3147 18.5069 19.2459 18.5461L15.5161 20.6987C15.3743 20.7785 15.2946 20.9291 15.2946 21.0885V25.4031C15.2946 25.5625 15.3832 25.7132 15.5161 25.7929L19.2459 27.9457C19.3147 27.9849 19.3925 28.0055 19.4718 28.0055C19.551 28.0055 19.6288 27.9849 19.6977 27.9457L23.4275 25.7929C23.5692 25.7132 23.649 25.5625 23.649 25.4031V21.0886C23.649 20.9292 23.5603 20.7785 23.4275 20.6988L19.6977 18.5461Z" fill="white"/>
</mask>
<g mask="url(#mask0_6_32)">
<path d="M19.6977 18.5461C19.6288 18.5069 19.551 18.4863 19.4718 18.4863C19.3925 18.4863 19.3147 18.5069 19.2459 18.5461L15.5161 20.6987C15.3743 20.7785 15.2946 20.9291 15.2946 21.0885V25.4031C15.2946 25.5625 15.3832 25.7132 15.5161 25.7929L19.2459 27.9457C19.3147 27.9849 19.3925 28.0055 19.4718 28.0055C19.551 28.0055 19.6288 27.9849 19.6977 27.9457L23.4275 25.7929C23.5692 25.7132 23.649 25.5625 23.649 25.4031V21.0886C23.649 20.9292 23.5603 20.7785 23.4275 20.6988L19.6977 18.5461Z" fill="url(#paint0_linear_6_32)"/>
<path d="M23.4363 20.6988L19.6888 18.546C19.652 18.5274 19.6134 18.5126 19.5736 18.5017L15.3743 25.6956C15.4091 25.738 15.4511 25.774 15.4984 25.8019L19.2458 27.9547C19.3522 28.0167 19.4762 28.0344 19.5913 27.9989L23.5338 20.7875C23.5072 20.752 23.4717 20.7254 23.4363 20.6989V20.6988Z" fill="url(#paint1_linear_6_32)"/>
<path d="M23.6756 25.4031V21.0886C23.6756 20.9291 23.5781 20.7785 23.4364 20.6988L19.6887 18.546C19.6454 18.5193 19.5973 18.5012 19.547 18.4929L23.6489 25.5007C23.6666 25.4741 23.6755 25.4386 23.6755 25.4032L23.6756 25.4031ZM15.4983 20.6988C15.3567 20.7785 15.2592 20.9292 15.2592 21.0887V25.4032C15.2592 25.5627 15.3655 25.7133 15.4983 25.793L19.2459 27.9458C19.3345 27.999 19.4319 28.0168 19.5382 27.999L15.5249 20.6899L15.4984 20.6988H15.4983Z" fill="url(#paint2_linear_6_32)"/>
<path fill-rule="evenodd" clip-rule="evenodd" d="M23.4452 25.793C23.5515 25.7309 23.6312 25.6246 23.6667 25.5095L19.5558 18.4929C19.4495 18.4752 19.3343 18.484 19.2369 18.546L15.516 20.69L19.5292 28.0078C19.5876 27.9983 19.6443 27.9804 19.6976 27.9547L23.4451 25.793L23.4452 25.793Z" fill="url(#paint3_linear_6_32)"/>
<path fill-rule="evenodd" clip-rule="evenodd" d="M23.4452 25.793L19.7065 27.9458C19.6538 27.9727 19.5969 27.9907 19.5382 27.9989L19.6091 28.1318L23.7553 25.731V25.6778L23.6489 25.5006C23.6312 25.6246 23.5515 25.731 23.4452 25.793Z" fill="url(#paint4_linear_6_32)"/>
<path fill-rule="evenodd" clip-rule="evenodd" d="M23.4452 25.793L19.7065 27.9458C19.6538 27.9727 19.5969 27.9907 19.5382 27.9989L19.6091 28.1318L23.7553 25.731V25.6778L23.6489 25.5006C23.6312 25.6246 23.5515 25.731 23.4452 25.793Z" fill="url(#paint5_linear_6_32)"/>
</g>
<defs>
<linearGradient id="paint0_linear_6_32" x1="20.9913" y1="20.1509" x2="16.9031" y2="26.5746" gradientUnits="userSpaceOnUse">
<stop stop-color="white"/>
<stop offset="0.3288" stop-color="white"/>
<stop offset="0.6352" stop-color="white"/>
<stop offset="0.9319" stop-color="white"/>
<stop offset="1" stop-color="white"/>
</linearGradient>
<linearGradient id="paint1_linear_6_32" x1="18.9055" y1="23.7512" x2="29.1441" y2="18.1885" gradientUnits="userSpaceOnUse">
<stop offset="0.1376" stop-color="white"/>
<stop offset="0.4032" stop-color="white"/>
<stop offset="0.65625" stop-color="white"/>
<stop offset="0.9081" stop-color="white"/>
</linearGradient>
<linearGradient id="paint2_linear_6_32" x1="14.8898" y1="23.249" x2="23.8017" y2="23.249" gradientUnits="userSpaceOnUse">
<stop offset="0.09192" stop-color="white"/>
<stop offset="0.2864" stop-color="white"/>
<stop offset="0.5968" stop-color="white"/>
<stop offset="0.8624" stop-color="white"/>
</linearGradient>
<linearGradient id="paint3_linear_6_32" x1="15.1583" y1="23.246" x2="23.7889" y2="23.246" gradientUnits="userSpaceOnUse">
<stop offset="0.09192" stop-color="white"/>
<stop offset="0.2864" stop-color="white"/>
<stop offset="0.5968" stop-color="white"/>
<stop offset="0.8624" stop-color="white"/>
</linearGradient>
<linearGradient id="paint4_linear_6_32" x1="19.3531" y1="26.8161" x2="23.8185" y2="26.8161" gradientUnits="userSpaceOnUse">
<stop offset="0.09192" stop-color="white"/>
<stop offset="0.2864" stop-color="white"/>
<stop offset="0.5968" stop-color="white"/>
<stop offset="0.8624" stop-color="white"/>
</linearGradient>
<linearGradient id="paint5_linear_6_32" x1="19.3531" y1="26.8161" x2="23.8185" y2="26.8161" gradientUnits="userSpaceOnUse">
<stop offset="0.09192" stop-color="white"/>
<stop offset="0.2864" stop-color="white"/>
<stop offset="0.5968" stop-color="white"/>
<stop offset="0.8624" stop-color="white"/>
</linearGradient>
</defs>
</svg>
