<svg width="50" height="51" viewBox="0 0 50 51" fill="none" xmlns="http://www.w3.org/2000/svg">
<ellipse cx="25" cy="25.2212" rx="25" ry="25.2212" fill="#0B0C10"/>
<path d="M33.2108 34.0793C32.5756 34.0793 31.9858 33.9982 31.6173 33.7727C31.2928 33.5747 31.1897 33.1526 31.3877 32.8281C31.587 32.5023 32.0091 32.3992 32.3336 32.5985C32.7984 32.8749 35.199 32.5587 35.6844 32.3332C37.1171 31.9111 37.6547 31.3075 37.7867 30.9981C37.6684 31.0242 37.5254 31.0613 37.3989 31.0943C36.7994 31.2497 35.98 31.4669 34.9446 31.4147C33.7608 31.3583 33.0321 30.9733 32.8121 30.7767C32.5289 30.5237 32.5028 30.0906 32.7557 29.8074C33.0019 29.531 33.4212 29.4994 33.7031 29.7304C33.7526 29.7593 34.1816 30.0013 35.0106 30.0425C35.837 30.0755 36.5107 29.9036 37.0511 29.7634C37.7055 29.5915 38.382 29.4142 38.8564 29.9408C39.1753 30.2955 39.2743 30.7946 39.1272 31.3102C38.8454 32.3002 37.7413 33.1595 36.1738 33.6105C35.8659 33.77 34.4497 34.0793 33.2108 34.0793ZM15.6913 33.3259C15.1689 33.3259 14.6519 33.0894 14.1514 32.6219C13.0061 31.5687 12.0175 29.3592 11.5321 28.1341C10.8832 26.4525 10.2534 24.3805 9.75709 22.292C9.31849 20.5155 9.0545 18.9619 9.02013 18.3459C8.87851 15.6097 9.48486 13.5501 10.8213 12.2233C11.8621 11.1742 13.3801 10.5857 15.3297 10.4743C15.7326 10.4441 16.2276 10.4455 16.6002 10.4757C18.3711 10.5472 20.0843 11.0216 21.2145 11.3722C21.5775 11.4849 21.781 11.8685 21.6682 12.2329C21.5555 12.5945 21.1732 12.8007 20.8089 12.6852C20.1352 12.4776 18.345 11.9208 16.5149 11.8479C16.3279 11.8328 16.1437 11.8369 15.9567 11.8328C15.778 11.83 15.5951 11.8314 15.4219 11.8452C13.7857 11.9387 12.6032 12.3814 11.7934 13.1954C10.7429 14.2389 10.2727 15.9452 10.3923 18.273C10.4184 18.7309 10.6522 20.1814 11.0922 21.9689C11.5761 24.0038 12.1852 26.0126 12.8108 27.6322C13.5616 29.5242 14.3906 30.9775 15.085 31.6141C15.2569 31.7736 15.481 31.9757 15.7037 31.9496C15.7917 31.9454 16.042 31.8891 16.4366 31.4436C16.8655 30.9665 17.5283 30.2543 18.1429 29.5915L19.2524 28.3926C19.5096 28.1135 19.944 28.0928 20.2245 28.35C20.505 28.6071 20.5243 29.0416 20.2685 29.322L19.1521 30.5279C18.543 31.1837 17.8857 31.8904 17.4636 32.3593C16.9205 32.9711 16.3486 33.2984 15.767 33.3231C15.7408 33.3245 15.7161 33.3259 15.6913 33.3259Z" fill="white"/>
<path d="M27.1103 42.9999C26.3308 42.9999 25.6914 42.7703 25.1428 42.3001C24.5598 41.7982 24.2395 41.1176 24.0044 40.5168C23.8957 40.2432 23.8036 39.674 23.7527 39.2312C23.6909 38.673 23.64 37.969 23.607 37.1743C23.5685 36.139 23.5479 35.1023 23.5479 34.0614C23.5479 33.1815 23.563 32.3084 23.5864 31.5632C23.5492 31.3941 23.5272 31.3006 23.4943 31.2112C23.4173 31.0008 23.2289 30.6172 22.8535 30.4591C22.782 30.4275 22.716 30.3904 22.6432 30.3477C22.5277 30.279 22.4823 30.2556 22.3888 30.2556C22.1523 30.3189 21.8801 30.2529 21.7082 30.0782C21.5377 29.905 21.447 29.663 21.5088 29.4279C21.6505 28.8958 21.8223 28.3706 21.9914 27.9512C22.0616 27.756 22.1606 27.5291 22.2692 27.2844C22.826 26.0125 23.5877 24.2719 22.7669 20.4014C22.6143 19.6864 22.2279 19.1722 21.678 18.955C21.1953 18.7638 20.6041 18.757 19.8685 18.9275C19.0793 19.1145 18.44 19.4403 18.1279 19.6191C17.9037 19.7456 17.6274 19.7387 17.4129 19.5971C17.197 19.4582 17.0774 19.208 17.1035 18.9536C17.1118 18.8587 17.3386 16.6533 17.8666 15.2289C18.3905 13.8086 19.1398 12.677 20.094 11.8644C21.2696 10.8689 22.6817 10.3836 24.4127 10.3795C24.4127 10.3795 24.4127 10.3822 24.4141 10.3822H24.5805C27.7909 10.4358 30.5505 11.852 32.5716 14.4782C33.222 15.321 33.7472 16.2271 34.1775 17.2487C34.2518 17.4274 34.2917 17.5539 34.3288 17.6776C34.3962 17.8976 34.3687 18.2015 34.2215 18.3789C34.0758 18.5576 33.8654 18.7089 33.6399 18.6896C32.2045 18.5397 31.22 18.7652 30.7182 19.3537C30.2425 19.9064 30.1572 20.7699 30.457 21.995C30.7498 23.1925 31.3383 24.4135 31.7535 25.2274C31.9653 25.6399 32.1688 26.0125 32.3406 26.3302L32.3887 26.4181C32.3929 26.425 32.397 26.4319 32.4011 26.4388C32.5386 26.6821 32.6706 26.9255 32.826 27.2527C33.068 27.8275 33.3457 28.2949 33.6812 28.7115C33.6867 28.7171 33.6922 28.7239 33.6977 28.7308C33.6977 28.7322 33.6991 28.7335 33.7004 28.7349C33.8283 28.8985 33.9521 29.0649 34.0909 29.2657C34.2147 29.4485 34.2449 29.6795 34.1707 29.8857C34.0964 30.0934 33.9273 30.2542 33.7156 30.3147C33.6358 30.3381 33.5409 30.3684 33.4378 30.4151C33.3196 30.4701 33.0955 30.6035 32.958 30.862C32.8136 31.1301 32.7531 31.5164 32.7751 32.0073C32.7064 32.9862 32.1756 37.4851 31.913 39.0484C31.7123 40.2349 31.3768 41.0242 30.8268 41.603C30.2535 42.208 29.4491 42.6012 28.2172 42.8707C27.8184 42.9573 27.4513 42.9999 27.1103 42.9999ZM24.9269 31.3006C24.9393 31.3006 24.9613 31.4353 24.9613 31.5673C24.9379 32.3386 24.9228 33.1994 24.9228 34.0614C24.9228 35.0858 24.9448 36.1032 24.9806 37.1193C25.0122 37.8755 25.0603 38.5465 25.1194 39.0772C25.1786 39.6052 25.2569 39.9421 25.2844 40.0149C25.4577 40.4577 25.6832 40.9527 26.0379 41.2565C26.3321 41.5095 26.8106 41.768 27.9202 41.526C28.8661 41.3184 29.4546 41.0489 29.8272 40.6557C30.1792 40.2844 30.4033 39.718 30.556 38.8174C30.8089 37.3214 31.3369 32.8405 31.4015 31.9839C31.3658 31.3129 31.4785 30.7052 31.7453 30.2089C31.9171 29.8871 32.1688 29.6066 32.4712 29.3894C32.1193 28.9219 31.8236 28.4077 31.5899 27.8577C31.4689 27.5978 31.3658 27.4012 31.2627 27.2142C31.2517 27.1964 31.2407 27.1799 31.231 27.1606L31.2324 27.1592C31.231 27.1565 31.2297 27.1537 31.2283 27.151H31.2269C31.2214 27.1414 31.2173 27.1317 31.2132 27.1221C31.2118 27.1194 31.2104 27.1166 31.2077 27.1139V27.1125C31.1884 27.0685 31.1733 27.0231 31.1623 26.975L31.1334 26.9819C30.9574 26.6574 30.7484 26.2724 30.5312 25.8489C29.819 24.4589 29.3708 23.3369 29.1219 22.3181C28.7108 20.631 28.8923 19.3688 29.676 18.4559C30.3346 17.6845 31.3232 17.2927 32.683 17.2679C32.3461 16.5639 31.9515 15.9205 31.4827 15.3141C29.7007 12.9973 27.3743 11.7998 24.5695 11.753H24.4127C23.0213 11.7544 21.8993 12.1311 20.9836 12.9093C20.2136 13.5652 19.5977 14.5043 19.1563 15.7019C18.9226 16.3343 18.7507 17.1785 18.638 17.866C18.9432 17.7519 19.2512 17.6584 19.5537 17.5869C20.5711 17.3435 21.4332 17.3765 22.1853 17.6735C23.1643 18.0599 23.8669 18.9495 24.1157 20.1113C25.0273 24.4149 24.1267 26.4704 23.5314 27.8316C23.4365 28.0488 23.3485 28.2496 23.2784 28.4393C23.2069 28.6153 23.1354 28.8105 23.068 29.0154C23.1821 29.0649 23.2743 29.1185 23.3416 29.1584C24.0236 29.4568 24.52 30.0067 24.7881 30.7368C24.8527 30.9211 24.8981 31.1081 24.9269 31.3006Z" fill="white"/>
<path d="M22.1756 30.2941C20.6934 30.2941 19.2552 29.6094 18.2295 28.416C17.1887 27.2033 16.7267 25.6207 16.9618 24.0712C17.1185 22.9808 17.1804 21.8382 17.146 20.6778C17.1309 19.7923 17.102 19.0471 17.102 19.0444C17.0869 18.6663 17.3825 18.3445 17.762 18.3294C18.1401 18.3349 18.4618 18.6099 18.4756 18.9894C18.4756 18.9894 18.5058 19.7497 18.521 20.6434C18.5581 21.8754 18.4921 23.0963 18.323 24.2705C18.147 25.4296 18.4935 26.6107 19.2731 27.5168C20.0375 28.4063 21.0962 28.9178 22.1756 28.9178C22.555 28.9178 22.863 29.2258 22.863 29.6053C22.863 29.9848 22.5564 30.2941 22.1756 30.2941ZM33.5285 30.3409C33.347 30.3409 33.1723 30.268 33.0417 30.1401C32.7612 29.8597 32.8025 29.63 32.9579 28.7762C33.1022 27.9732 33.347 26.6285 33.3827 25.3952C33.3978 24.5744 33.3085 23.7783 33.2301 23.0771C33.1627 22.479 33.105 21.9634 33.1201 21.5206C33.1627 20.2901 33.1916 19.4802 33.0211 18.0819C32.9757 17.7052 33.2438 17.3628 33.6206 17.3161C34.0042 17.2611 34.3397 17.5374 34.3864 17.9155C34.5693 19.4211 34.5377 20.3217 34.4937 21.5674C34.4827 21.9084 34.5349 22.3786 34.5968 22.9217C34.6807 23.6655 34.7755 24.5084 34.759 25.4268C34.7494 25.7362 34.7302 26.0469 34.7013 26.3563C35.5964 24.5524 36.4268 22.3607 37.2119 19.736C37.6299 18.3211 37.8581 17.0356 37.8719 16.025C37.887 14.9512 37.645 14.4438 37.5502 14.3379C35.7861 12.3896 33.2658 11.3942 30.0622 11.3749H29.8175C29.3198 11.3832 28.789 11.5523 28.2294 11.7311C27.828 11.8589 27.432 11.984 27.0415 12.0569C26.6716 12.127 26.3086 11.8823 26.2385 11.5097C26.1684 11.1371 26.4131 10.7768 26.7857 10.7067C27.124 10.6421 27.465 10.5321 27.8115 10.4207C28.4425 10.2186 29.0956 10.011 29.8079 10H30.0664C33.6756 10.0206 36.5355 11.1701 38.5704 13.4154C39.0172 13.9103 39.2633 14.8687 39.2468 16.0429C39.2303 17.1786 38.9828 18.592 38.5291 20.1278C37.216 24.5166 35.7627 27.7656 34.0826 30.0604C33.9643 30.2213 33.7801 30.323 33.5807 30.3381C33.5642 30.3409 33.5463 30.3409 33.5285 30.3409Z" fill="white"/>
<path d="M20.1943 34.7737C18.9596 34.7737 18.1553 34.5097 17.7483 33.9735C17.4898 33.6339 17.4279 33.2008 17.5806 32.8172C17.8102 32.2411 18.3986 32.0802 18.9679 31.9248C19.3171 31.8286 19.7131 31.72 20.1311 31.5179C20.934 31.1288 22.1935 29.8336 22.6128 29.3688C22.8658 29.087 23.3017 29.0636 23.5836 29.3166C23.8668 29.5709 23.8902 30.0041 23.6358 30.2873C23.4639 30.4798 21.9185 32.1806 20.7292 32.7567C20.1984 33.0138 19.7186 33.1444 19.3322 33.2503C19.2855 33.264 19.2332 33.2778 19.1824 33.2915C19.5137 33.3809 20.1393 33.4524 21.2792 33.3355C23.0844 33.1444 23.6001 31.9345 23.6221 31.8836C23.765 31.5344 24.1597 31.3611 24.513 31.5014C24.8622 31.6402 25.0382 32.0307 24.9035 32.3827C24.8719 32.4666 24.095 34.4204 21.4235 34.7036C20.9725 34.7503 20.5642 34.7737 20.1943 34.7737ZM23.3182 21.698C22.7655 21.698 21.6586 21.5935 20.8158 20.8401C20.1105 20.2117 19.753 19.3015 19.753 18.1369C19.753 17.7574 20.061 17.4495 20.4404 17.4495C20.8199 17.4495 21.1279 17.7574 21.1279 18.1369C21.1279 18.889 21.3286 19.4514 21.7246 19.8089C22.4066 20.4235 23.4983 20.3162 23.5107 20.3162C23.886 20.2667 24.2257 20.5486 24.2669 20.9239C24.3081 21.3007 24.0387 21.6403 23.6633 21.6829C23.6441 21.6843 23.5176 21.698 23.3182 21.698ZM29.6058 21.7063C29.2263 21.7063 28.9183 21.3983 28.9183 21.0188C28.9183 20.6393 29.2263 20.3313 29.6058 20.3313C30.2795 20.3313 30.7704 20.154 31.1059 19.7869C31.7095 19.1283 31.6352 18.0489 31.6352 18.0393C31.6022 17.6612 31.8827 17.3271 32.2608 17.2955C32.6389 17.2652 32.973 17.543 33.0047 17.9211C33.0102 17.9898 33.138 19.6081 32.1192 20.7177C31.5183 21.3722 30.6728 21.7063 29.6058 21.7063Z" fill="white"/>
</svg>
