<svg width="50" height="51" viewBox="0 0 50 51" fill="none" xmlns="http://www.w3.org/2000/svg">
<ellipse cx="25" cy="25.2212" rx="25" ry="25.2212" fill="#0B0C10"/>
<path d="M24.3192 7.12244C25.28 6.76214 26.3529 7.22071 26.7853 8.18698C30.8208 16.9489 34.8243 25.6945 38.8278 34.4729C39.3243 35.5538 38.6997 36.9786 37.5627 37.2734C31.4294 39.1405 25.28 41.0075 19.1306 42.8745C18.394 43.153 17.5613 42.9564 16.9848 42.3996C16.6485 41.9738 16.3442 41.5152 16.072 41.0403C14.1663 38.0104 12.2607 34.9642 10.355 31.918C9.9066 31.2465 9.87457 30.3621 10.3069 29.6743C14.6147 22.4845 18.9385 15.2948 23.2623 8.10509C23.5185 7.71203 23.8388 7.28622 24.3192 7.12244ZM25.1679 11.9047C23.2943 21.0925 21.4367 30.2802 19.579 39.4844C19.3548 40.0576 20.0274 40.5653 20.5399 40.2869C25.7124 38.7147 30.9009 37.1588 36.0734 35.5538C36.4738 35.4719 36.714 35.0625 36.6339 34.6694C36.6179 34.5875 36.5859 34.522 36.5538 34.4565C33.1108 26.8082 29.5557 19.209 26.1127 11.5607C25.7764 11.397 25.216 11.4297 25.1679 11.9047Z" fill="white"/>
</svg>
