<svg width="50" height="51" viewBox="0 0 50 51" fill="none" xmlns="http://www.w3.org/2000/svg">
<ellipse cx="25" cy="25.2212" rx="25" ry="25.2212" fill="#0B0C10"/>
<path d="M23.0379 22.9225C22.5393 23.214 22.1373 23.6485 21.8826 24.1712C21.628 24.6939 21.5322 25.2814 21.6073 25.8592C21.6825 26.437 21.9252 26.9793 22.3048 27.4175C22.6845 27.8557 23.1839 28.1701 23.74 28.3209C24.2961 28.4718 24.884 28.4523 25.4291 28.2649C25.9743 28.0775 26.4524 27.7307 26.8028 27.2683C27.1533 26.8059 27.3604 26.2487 27.3981 25.6671C27.4357 25.0856 27.3021 24.5057 27.0142 24.001C26.6282 23.3243 25.9924 22.8304 25.2467 22.6282C24.501 22.4259 23.7065 22.5318 23.0379 22.9225ZM36.085 26.1197C35.8939 25.8986 35.6922 25.6769 35.48 25.4546C35.6282 25.2969 35.7717 25.1393 35.9103 24.9819C38.5277 22.0049 39.6324 19.0193 38.6088 17.2244C37.6273 15.5035 34.7077 14.9906 31.0526 15.7101C30.6925 15.7814 30.3345 15.8618 29.9784 15.9513C29.9103 15.7135 29.8378 15.477 29.761 15.2418C28.521 11.4592 26.518 8.9987 24.4707 9C22.5076 9.00091 20.6103 11.3052 19.3999 14.8699C19.2808 15.2215 19.1707 15.5761 19.0694 15.9336C18.8314 15.8745 18.5923 15.8199 18.3523 15.7698C14.4959 14.9682 11.3898 15.4961 10.3682 17.2921C9.38858 19.0143 10.413 21.8293 12.8595 24.671C13.1022 24.9522 13.3517 25.2271 13.608 25.4956C13.3058 25.8108 13.0196 26.1257 12.7529 26.4389C10.3657 29.2406 9.39981 32.0096 10.3778 33.7244C11.3879 35.4956 14.4502 36.0746 18.1777 35.332C18.4797 35.2714 18.7801 35.2032 19.0789 35.1274C19.1883 35.5142 19.3084 35.8975 19.439 36.2775C20.6441 39.7706 22.5307 42.0007 24.4869 42C26.5071 41.9988 28.5323 39.6028 29.7593 35.9631C29.8562 35.6755 29.9479 35.3768 30.0349 35.0692C30.4208 35.1664 30.8091 35.2526 31.2 35.3279C34.7913 36.0157 37.6423 35.4748 38.6185 33.7588C39.6266 31.9862 38.5872 29.0133 36.0849 26.1197H36.085ZM11.5749 17.9955C12.2039 16.89 14.7423 16.4587 18.072 17.1507C18.2848 17.195 18.5012 17.2445 18.7213 17.2992C18.3962 18.7549 18.1668 20.2309 18.0347 21.7174C16.8332 22.573 15.6878 23.5064 14.6055 24.5118C14.367 24.2621 14.1349 24.0064 13.9092 23.7447L13.9093 23.7448C11.8131 21.3099 10.9846 19.0333 11.5749 17.9955ZM17.9099 27.4468C17.0777 26.8089 16.3044 26.1555 15.6024 25.4982C16.3039 24.845 17.0777 24.1937 17.9082 23.5575C17.8784 24.2056 17.8636 24.8542 17.8639 25.5032C17.8643 26.1513 17.8797 26.7992 17.9099 27.4468ZM17.9089 33.9488C16.4962 34.2668 15.0377 34.3189 13.6064 34.1025C13.214 34.0716 12.8321 33.9595 12.4842 33.7733C12.1362 33.587 11.8298 33.3305 11.5836 33.0196C10.9902 31.979 11.7658 29.7559 13.8074 27.3597C14.0641 27.0594 14.3291 26.767 14.6026 26.4824C15.6851 27.493 16.8324 28.4301 18.0371 29.2875C18.1711 30.7929 18.4031 32.2878 18.7318 33.7623C18.4591 33.8313 18.1848 33.8935 17.9089 33.9488ZM29.4832 20.6839C28.9366 20.3352 28.3832 19.9977 27.823 19.6714C27.2717 19.3502 26.7139 19.0411 26.1494 18.744C27.1159 18.3326 28.066 17.9812 28.9832 17.6949C29.1995 18.6821 29.3663 19.6797 29.4832 20.6839ZM20.7169 15.3281C21.7539 12.2737 23.2883 10.4102 24.4715 10.4097C25.7315 10.4091 27.3687 12.4198 28.4392 15.6858C28.5088 15.8987 28.5745 16.1128 28.6365 16.3281C27.23 16.7697 25.854 17.305 24.5174 17.9306C23.1863 17.2977 21.8146 16.7564 20.4116 16.3104C20.5054 15.9805 20.6071 15.653 20.7169 15.3281ZM20.0643 17.6773C21.0211 17.9822 21.962 18.3358 22.8836 18.7366C21.7417 19.3331 20.6293 19.9829 19.5465 20.6859C19.6773 19.6332 19.8514 18.6246 20.0643 17.6773ZM19.5489 30.3174C20.0889 30.6674 20.6368 31.0044 21.1926 31.3284C21.7595 31.6588 22.334 31.9754 22.916 32.2781C21.9874 32.6928 21.0384 33.059 20.0727 33.3752C19.8573 32.4148 19.6813 31.3884 19.5489 30.3174ZM28.4413 35.5075C28.0076 36.9052 27.3236 38.2103 26.4233 39.3573L26.4232 39.3574C26.2007 39.686 25.914 39.9649 25.5808 40.1769C25.2477 40.3889 24.8751 40.5295 24.4861 40.59C23.2992 40.5907 21.7843 38.7997 20.7537 35.8125C20.6324 35.4593 20.5207 35.1029 20.4188 34.7433C21.8285 34.2829 23.2058 33.7263 24.5412 33.0773C25.8888 33.7069 27.2757 34.2462 28.6932 34.6918C28.6158 34.9657 28.5318 35.2376 28.4413 35.5075ZM29.0317 33.3225C28.1039 33.0321 27.14 32.6749 26.1595 32.2574C26.7123 31.963 27.269 31.652 27.8297 31.3245C28.4052 30.9881 28.9659 30.6433 29.512 30.2901C29.4032 31.3086 29.2429 32.3207 29.0317 33.3226V33.3225ZM29.7591 25.4971C29.7603 26.4992 29.7294 27.5004 29.6664 28.5008C28.8634 29.051 28.0156 29.5882 27.1335 30.1037C26.2551 30.6171 25.3847 31.0889 24.5309 31.5159C23.6325 31.0801 22.7514 30.6104 21.8876 30.1068C21.0286 29.6063 20.1894 29.0734 19.3699 28.508C19.2949 27.5079 19.2572 26.5059 19.2566 25.5022L19.2568 25.5025C19.2562 24.4994 19.2931 23.4974 19.3676 22.4964C20.1704 21.9414 21.012 21.4047 21.8822 20.8961C22.7564 20.3851 23.6376 19.9153 24.514 19.4895C25.4014 19.9261 26.2728 20.3939 27.1281 20.8931C27.9865 21.3925 28.8281 21.9198 29.6529 22.4749C29.7237 23.4808 29.7592 24.4882 29.7592 25.4971H29.7591ZM31.3185 17.094C34.4501 16.4773 36.8114 16.8922 37.4029 17.9292C38.033 19.0341 37.1299 21.4743 34.8702 24.0447L34.8701 24.0448C34.7453 24.1866 34.6158 24.329 34.4816 24.472C33.3805 23.4645 32.213 22.534 30.9871 21.6871C30.8633 20.2169 30.6426 18.7567 30.3262 17.3163C30.6634 17.2324 30.9942 17.1582 31.3185 17.094ZM31.1068 23.5037C31.9337 24.1149 32.7288 24.7691 33.4887 25.4636C32.7321 26.1696 31.9396 26.8351 31.1144 27.4574C31.1396 26.8041 31.1521 26.1504 31.1517 25.4965C31.1514 24.8321 31.1364 24.1678 31.1068 23.5037ZM37.4115 33.0551C36.8191 34.0966 34.53 34.5308 31.4587 33.9426C31.1067 33.8753 30.7456 33.7952 30.3752 33.7024C30.6839 32.2435 30.8949 30.7652 31.0067 29.2775C32.2306 28.4158 33.3944 27.4698 34.49 26.4463C34.6817 26.6479 34.8641 26.8486 35.0371 27.0483V27.0482C36.0168 28.1266 36.792 29.3783 37.324 30.7408C37.4941 31.1 37.5897 31.4907 37.6047 31.8888C37.6198 32.2868 37.554 32.6838 37.4115 33.0551Z" fill="white"/>
</svg>
