<svg width="50" height="51" viewBox="0 0 50 51" fill="none" xmlns="http://www.w3.org/2000/svg">
<ellipse cx="25" cy="25.2212" rx="25" ry="25.2212" fill="#0B0C10"/>
<path fill-rule="evenodd" clip-rule="evenodd" d="M14.75 20.6667C16.0498 15.5558 19.3002 13 24.5 13C32.3 13 33.275 18.75 37.175 19.7083C39.7752 20.3474 42.05 19.3891 44 16.8333C42.7002 21.9442 39.4498 24.5 34.25 24.5C26.45 24.5 25.475 18.75 21.575 17.7917C18.9748 17.1526 16.7 18.1109 14.75 20.6667ZM5 32.1667C6.2998 27.0558 9.5502 24.5 14.75 24.5C22.55 24.5 23.525 30.25 27.425 31.2083C30.0252 31.8474 32.3 30.8891 34.25 28.3333C32.9502 33.4442 29.6998 36 24.5 36C16.7 36 15.725 30.25 11.825 29.2917C9.2248 28.6526 6.95 29.6109 5 32.1667Z" fill="url(#paint0_linear_8_85)"/>
<defs>
<linearGradient id="paint0_linear_8_85" x1="5" y1="-7.44424" x2="43.0192" y2="57.0227" gradientUnits="userSpaceOnUse">
<stop stop-color="white"/>
<stop offset="1" stop-color="white"/>
</linearGradient>
</defs>
</svg>
